<svg width="174" height="28" viewBox="0 0 174 28" fill="none" xmlns="http://www.w3.org/2000/svg">
<path d="M12.8884 6.99498C12.3706 6.99498 12.1113 7.62281 12.4774 7.98999L27.7517 23.307C27.9787 23.5346 27.9787 23.9037 27.7517 24.1313L24.064 27.8293C23.837 28.0569 23.469 28.0569 23.242 27.8293L18.3979 22.9716C18.0317 22.6044 17.4056 22.8645 17.4056 23.3837V27.1236C17.4056 27.4455 17.1454 27.7065 16.8244 27.7065H1.85263C1.53162 27.7065 1.27139 27.4455 1.27139 27.1236V21.6007C1.27139 21.2788 1.53162 21.0179 1.85263 21.0179H15.0463C15.5642 21.0179 15.8235 20.39 15.4573 20.0229L0.170241 4.69302C-0.0567469 4.4654 -0.0567471 4.09635 0.170241 3.86873L3.85794 0.170717C4.08493 -0.0569056 4.45295 -0.0569057 4.67994 0.170717L9.09674 4.59987C9.4629 4.96705 10.089 4.707 10.089 4.18772V0.686166C10.089 0.364259 10.3492 0.103302 10.6702 0.103302H26.1318C26.4528 0.103302 26.713 0.364259 26.713 0.686166V6.41212C26.713 6.73402 26.4528 6.99498 26.1318 6.99498H12.8884Z" fill="white"/>
<path d="M152.811 24.0299C151.541 24.0299 150.446 23.7488 149.525 23.1867C148.61 22.6188 147.903 21.8273 147.405 20.812C146.914 19.791 146.668 18.6037 146.668 17.25C146.668 15.8963 146.914 14.7032 147.405 13.6707C147.903 12.6325 148.595 11.8238 149.482 11.2444C150.374 10.6594 151.415 10.3668 152.605 10.3668C153.291 10.3668 153.969 10.4815 154.638 10.711C155.308 10.9404 155.917 11.3133 156.466 11.8295C157.015 12.34 157.453 13.0168 157.779 13.86C158.105 14.7032 158.268 15.7414 158.268 16.9747V17.835H148.109V16.0798H156.208C156.208 15.3342 156.06 14.6688 155.762 14.0837C155.471 13.4987 155.053 13.0369 154.51 12.6985C153.972 12.3601 153.337 12.1909 152.605 12.1909C151.798 12.1909 151.101 12.3916 150.511 12.7931C149.928 13.1889 149.479 13.7052 149.164 14.3418C148.85 14.9785 148.692 15.6611 148.692 16.3896V17.5597C148.692 18.5578 148.864 19.4038 149.207 20.0979C149.556 20.7862 150.04 21.311 150.657 21.6724C151.275 22.028 151.993 22.2059 152.811 22.2059C153.343 22.2059 153.823 22.1313 154.252 21.9821C154.687 21.8273 155.062 21.5978 155.376 21.2938C155.691 20.9841 155.934 20.5998 156.106 20.1409L158.062 20.6916C157.856 21.3569 157.51 21.942 157.024 22.4468C156.537 22.9458 155.937 23.3358 155.222 23.6169C154.507 23.8922 153.703 24.0299 152.811 24.0299Z" fill="white"/>
<path d="M161.641 7.43277V6.61135H166.522V7.43277H164.555V12.9357H163.606V7.43277H161.641Z" fill="white"/>
<path d="M167.601 6.61135H168.756L170.764 11.5275H170.837L172.845 6.61135H174V12.9357H173.095V8.35919H173.036L171.176 12.9264H170.425L168.565 8.3561H168.506V12.9357H167.601V6.61135Z" fill="white"/>
<path d="M134.214 23.7544V22.2057L141.696 12.5692V12.4316H134.454V10.5387H144.304V12.1562L137.028 21.7238V21.8615H144.544V23.7544H134.214Z" fill="white"/>
<path d="M124.854 24.0643C124.019 24.0643 123.261 23.9066 122.581 23.5911C121.9 23.2699 121.359 22.8081 120.959 22.2059C120.559 21.5978 120.358 20.8636 120.358 20.0032C120.358 19.2461 120.507 18.6323 120.804 18.162C121.102 17.6859 121.499 17.3131 121.997 17.0435C122.495 16.7739 123.044 16.5731 123.644 16.4412C124.251 16.3035 124.86 16.1946 125.472 16.1143C126.273 16.011 126.922 15.9336 127.42 15.882C127.923 15.8246 128.289 15.7299 128.518 15.598C128.752 15.4661 128.87 15.2367 128.87 14.9097V14.8409C128.87 13.992 128.638 13.3323 128.175 12.862C127.717 12.3916 127.022 12.1564 126.09 12.1564C125.123 12.1564 124.365 12.3687 123.816 12.7931C123.267 13.2176 122.881 13.6707 122.658 14.1526L120.736 13.4642C121.079 12.6612 121.537 12.036 122.109 11.5886C122.686 11.1354 123.316 10.82 123.996 10.6421C124.683 10.4586 125.358 10.3668 126.021 10.3668C126.444 10.3668 126.931 10.4184 127.48 10.5217C128.035 10.6192 128.569 10.8228 129.084 11.1326C129.605 11.4423 130.037 11.9098 130.38 12.535C130.723 13.1602 130.895 13.9977 130.895 15.0474V23.7546H128.87V21.9649H128.767C128.629 22.2517 128.401 22.5586 128.08 22.8856C127.76 23.2125 127.334 23.4907 126.802 23.7201C126.27 23.9496 125.621 24.0643 124.854 24.0643ZM125.163 22.2403C125.964 22.2403 126.639 22.0825 127.188 21.767C127.743 21.4516 128.16 21.0443 128.441 20.5453C128.727 20.0463 128.87 19.5214 128.87 18.9708V17.1123C128.784 17.2156 128.595 17.3102 128.303 17.3962C128.017 17.4765 127.686 17.5482 127.308 17.6113C126.936 17.6687 126.573 17.7203 126.218 17.7662C125.87 17.8064 125.586 17.8408 125.369 17.8695C124.843 17.9383 124.351 18.0501 123.893 18.205C123.441 18.3542 123.075 18.5807 122.795 18.8847C122.52 19.183 122.383 19.5903 122.383 20.1065C122.383 20.812 122.643 21.3455 123.164 21.7068C123.69 22.0625 124.357 22.2403 125.163 22.2403Z" fill="white"/>
<path d="M99.9778 23.7546V10.5389H101.934V12.6038H102.106C102.38 11.8983 102.823 11.3505 103.436 10.9605C104.048 10.5647 104.783 10.3668 105.641 10.3668C106.51 10.3668 107.234 10.5647 107.811 10.9605C108.395 11.3505 108.849 11.8983 109.176 12.6038H109.313C109.65 11.9213 110.156 11.3792 110.831 10.9777C111.506 10.5704 112.316 10.3668 113.26 10.3668C114.438 10.3668 115.402 10.7368 116.151 11.4767C116.9 12.2109 117.275 13.3553 117.275 14.9097V23.7546H115.25V14.9097C115.25 13.9346 114.984 13.2377 114.452 12.8189C113.92 12.4002 113.294 12.1909 112.573 12.1909C111.647 12.1909 110.929 12.4719 110.42 13.034C109.911 13.5904 109.656 14.296 109.656 15.1506V23.7546H107.597V14.7032C107.597 13.9518 107.354 13.3467 106.867 12.8878C106.381 12.4232 105.755 12.1909 104.988 12.1909C104.462 12.1909 103.97 12.3314 103.513 12.6125C103.061 12.8935 102.695 13.2836 102.414 13.7826C102.14 14.2759 102.003 14.8466 102.003 15.4948V23.7546H99.9778Z" fill="white"/>
<path d="M90.242 24.0643C89.4069 24.0643 88.649 23.9066 87.9683 23.5911C87.2876 23.2699 86.7471 22.8081 86.3467 22.2059C85.9463 21.5978 85.7461 20.8636 85.7461 20.0032C85.7461 19.2461 85.8948 18.6323 86.1922 18.162C86.4897 17.6859 86.8872 17.3131 87.3849 17.0435C87.8825 16.7739 88.4316 16.5731 89.0322 16.4412C89.6385 16.3035 90.2477 16.1946 90.8597 16.1143C91.6605 16.011 92.3098 15.9336 92.8074 15.882C93.3108 15.8246 93.6768 15.7299 93.9056 15.598C94.1401 15.4661 94.2574 15.2367 94.2574 14.9097V14.8409C94.2574 13.992 94.0257 13.3323 93.5624 12.862C93.1048 12.3916 92.4099 12.1564 91.4775 12.1564C90.5108 12.1564 89.7529 12.3687 89.2038 12.7931C88.6547 13.2176 88.2686 13.6707 88.0455 14.1526L86.1236 13.4642C86.4668 12.6612 86.9244 12.036 87.4964 11.5886C88.0741 11.1354 88.7033 10.82 89.384 10.6421C90.0704 10.4586 90.7453 10.3668 91.4089 10.3668C91.8321 10.3668 92.3183 10.4184 92.8675 10.5217C93.4223 10.6192 93.9571 10.8228 94.4719 11.1326C94.9924 11.4423 95.4243 11.9098 95.7675 12.535C96.1107 13.1602 96.2823 13.9977 96.2823 15.0474V23.7546H94.2574V21.9649H94.1544C94.0172 22.2517 93.7884 22.5586 93.4681 22.8856C93.1477 23.2125 92.7216 23.4907 92.1896 23.7201C91.6577 23.9496 91.0085 24.0643 90.242 24.0643ZM90.5509 22.2403C91.3517 22.2403 92.0266 22.0825 92.5757 21.767C93.1306 21.4516 93.5481 21.0443 93.8284 20.5453C94.1144 20.0463 94.2574 19.5214 94.2574 18.9708V17.1123C94.1716 17.2156 93.9829 17.3102 93.6911 17.3962C93.4051 17.4765 93.0734 17.5482 92.6959 17.6113C92.3241 17.6687 91.9608 17.7203 91.6062 17.7662C91.2573 17.8064 90.9741 17.8408 90.7568 17.8695C90.2305 17.9383 89.7386 18.0501 89.281 18.205C88.8292 18.3542 88.4631 18.5807 88.1828 18.8847C87.9082 19.183 87.771 19.5903 87.771 20.1065C87.771 20.812 88.0312 21.3455 88.5517 21.7068C89.078 22.0625 89.7443 22.2403 90.5509 22.2403Z" fill="white"/>
<path d="M83.3165 10.5389V12.2597H76.4868V10.5389H83.3165ZM78.4774 7.37268H80.5022V19.9689C80.5022 20.5425 80.5852 20.9727 80.7511 21.2595C80.9227 21.5405 81.14 21.7298 81.4031 21.8273C81.672 21.9191 81.9551 21.965 82.2525 21.965C82.4756 21.965 82.6587 21.9535 82.8017 21.9306C82.9447 21.9019 83.0591 21.8789 83.1449 21.8617L83.5567 23.6858C83.4194 23.7374 83.2278 23.789 82.9818 23.8406C82.7359 23.898 82.4241 23.9267 82.0466 23.9267C81.4746 23.9267 80.9141 23.8034 80.365 23.5567C79.8216 23.3101 79.3697 22.9344 79.0093 22.4296C78.6547 21.9248 78.4774 21.2881 78.4774 20.5195V7.37268Z" fill="white"/>
<path d="M67.8496 24.0641C67.0144 24.0641 66.2565 23.9064 65.5759 23.5909C64.8952 23.2697 64.3546 22.8079 63.9543 22.2056C63.5539 21.5976 63.3537 20.8634 63.3537 20.003C63.3537 19.2459 63.5024 18.6321 63.7998 18.1618C64.0972 17.6857 64.4948 17.3129 64.9924 17.0433C65.4901 16.7737 66.0392 16.5729 66.6398 16.441C67.2461 16.3033 67.8553 16.1944 68.4673 16.1141C69.2681 16.0108 69.9173 15.9334 70.415 15.8817C70.9183 15.8244 71.2844 15.7297 71.5132 15.5978C71.7477 15.4659 71.865 15.2364 71.865 14.9095V14.8407C71.865 13.9917 71.6333 13.3321 71.17 12.8618C70.7124 12.3914 70.0174 12.1562 69.0851 12.1562C68.1184 12.1562 67.3605 12.3685 66.8114 12.7929C66.2623 13.2174 65.8762 13.6705 65.6531 14.1524L63.7312 13.464C64.0744 12.661 64.532 12.0358 65.104 11.5884C65.6817 11.1352 66.3109 10.8198 66.9916 10.6419C67.678 10.4584 68.3529 10.3666 69.0164 10.3666C69.4397 10.3666 69.9259 10.4182 70.475 10.5215C71.0299 10.619 71.5647 10.8226 72.0795 11.1324C72.6 11.4421 73.0318 11.9096 73.375 12.5348C73.7182 13.16 73.8899 13.9975 73.8899 15.0472V23.7544H71.865V21.9647H71.762C71.6247 22.2515 71.3959 22.5584 71.0756 22.8854C70.7553 23.2123 70.3292 23.4905 69.7972 23.7199C69.2652 23.9494 68.616 24.0641 67.8496 24.0641ZM68.1584 22.2401C68.9592 22.2401 69.6342 22.0823 70.1833 21.7668C70.7381 21.4514 71.1557 21.0441 71.436 20.5451C71.722 20.0461 71.865 19.5212 71.865 18.9706V17.1121C71.7792 17.2154 71.5904 17.31 71.2987 17.396C71.0127 17.4763 70.6809 17.548 70.3034 17.6111C69.9316 17.6685 69.5684 17.7201 69.2138 17.766C68.8648 17.8062 68.5817 17.8406 68.3643 17.8693C67.8381 17.9381 67.3462 18.0499 66.8886 18.2048C66.4367 18.3539 66.0706 18.5805 65.7904 18.8845C65.5158 19.1828 65.3785 19.59 65.3785 20.1063C65.3785 20.8118 65.6388 21.3453 66.1593 21.7066C66.6855 22.0622 67.3519 22.2401 68.1584 22.2401Z" fill="white"/>
<path d="M52.3027 23.7544H46.8801V6.13347H52.5429C54.2475 6.13347 55.706 6.48624 56.9187 7.19176C58.1313 7.89155 59.0608 8.89821 59.7072 10.2117C60.3535 11.5195 60.6767 13.0855 60.6767 14.9095C60.6767 16.745 60.3507 18.3253 59.6986 19.6503C59.0465 20.9695 58.097 21.9848 56.85 22.6961C55.6031 23.4016 54.0873 23.7544 52.3027 23.7544ZM49.008 21.8615H52.1654C53.6183 21.8615 54.8223 21.5804 55.7775 21.0183C56.7328 20.4562 57.4449 19.656 57.914 18.6178C58.383 17.5796 58.6175 16.3435 58.6175 14.9095C58.6175 13.487 58.3859 12.2624 57.9225 11.2356C57.4592 10.2031 56.7671 9.41158 55.8462 8.86092C54.9253 8.30454 53.7784 8.02634 52.4056 8.02634H49.008V21.8615Z" fill="white"/>
</svg>
