<svg width="28" height="28" viewBox="0 0 28 28" fill="none" xmlns="http://www.w3.org/2000/svg">
<path d="M12.9244 6.99498C12.4052 6.99498 12.1451 7.62281 12.5123 7.98999L27.8293 23.307C28.0569 23.5346 28.0569 23.9037 27.8293 24.1313L24.1313 27.8293C23.9037 28.0569 23.5346 28.0569 23.307 27.8293L18.4493 22.9716C18.0821 22.6044 17.4543 22.8645 17.4543 23.3837V27.1236C17.4543 27.4455 17.1933 27.7065 16.8714 27.7065H1.85781C1.5359 27.7065 1.27495 27.4455 1.27495 27.1236V21.6007C1.27495 21.2788 1.53591 21.0179 1.85781 21.0179H15.0884C15.6077 21.0179 15.8677 20.39 15.5005 20.0229L0.170717 4.69302C-0.0569055 4.4654 -0.0569058 4.09635 0.170717 3.86873L3.86873 0.170717C4.09635 -0.0569056 4.4654 -0.0569057 4.69302 0.170717L9.12217 4.59987C9.48936 4.96705 10.1172 4.707 10.1172 4.18772V0.686166C10.1172 0.364259 10.3781 0.103302 10.7 0.103302H26.2048C26.5267 0.103302 26.7877 0.364259 26.7877 0.686166V6.41212C26.7877 6.73402 26.5267 6.99498 26.2048 6.99498H12.9244Z" fill="white"/>
</svg>
