<svg width="18" height="18" viewBox="0 0 18 18" fill="none" xmlns="http://www.w3.org/2000/svg">
<path d="M2.25 4.5V12.6C2.25 13.4401 2.25 13.8598 2.41349 14.1807C2.5573 14.4629 2.7866 14.6929 3.06885 14.8367C3.3894 15 3.80925 15 4.64768 15H13.3523C14.1908 15 14.61 15 14.9305 14.8367C15.2128 14.6929 15.4429 14.4631 15.5867 14.1808C15.7502 13.86 15.7502 13.4399 15.7502 12.5999L15.7502 6.89983C15.7502 6.05975 15.7502 5.63972 15.5867 5.31885C15.4429 5.0366 15.2129 4.8073 14.9307 4.66349C14.6098 4.5 14.1901 4.5 13.35 4.5H9M2.25 4.5H9M2.25 4.5C2.25 3.67157 2.92157 3 3.75 3H6.50589C6.87277 3 7.05665 3 7.22928 3.04145C7.38233 3.07819 7.52839 3.13895 7.6626 3.22119C7.81392 3.31392 7.94386 3.44386 8.20312 3.70312L9 4.5" stroke="white" stroke-width="1.2" stroke-linecap="round" stroke-linejoin="round"/>
</svg>
