<svg width="18" height="18" viewBox="0 0 18 18" fill="none" xmlns="http://www.w3.org/2000/svg">
<path d="M3 11.25V12.6001C3 13.4402 3 13.86 3.16349 14.1809C3.3073 14.4632 3.5366 14.6929 3.81885 14.8367C4.1394 15 4.55925 15 5.39768 15H9M3 11.25V6.75M3 11.25H9M3 6.75V5.40015C3 4.56007 3 4.13972 3.16349 3.81885C3.3073 3.5366 3.5366 3.3073 3.81885 3.16349C4.13972 3 4.56007 3 5.40015 3H9M3 6.75H9M9 3H12.6001C13.4402 3 13.86 3 14.1809 3.16349C14.4632 3.3073 14.6929 3.5366 14.8367 3.81885C15 4.1394 15 4.55925 15 5.39768V6.75M9 3V6.75M9 6.75V11.25M9 6.75H15M9 11.25V15M9 11.25H15M9 15H12.6027C13.4411 15 13.8604 15 14.1809 14.8367C14.4632 14.6929 14.6929 14.4632 14.8367 14.1809C15 13.8604 15 13.4411 15 12.6027V11.25M15 11.25V6.75" stroke="white" stroke-width="1.2" stroke-linecap="round" stroke-linejoin="round"/>
</svg>
