<svg width="18" height="18" viewBox="0 0 18 18" fill="none" xmlns="http://www.w3.org/2000/svg">
<path d="M4.66084 14.0001V6.13212L2.78484 7.25912L1.83984 5.61412L4.66084 3.92012H6.57884V14.0001H4.66084Z" fill="white"/>
<path d="M13.0476 14.2101C12.4783 14.2101 11.9509 14.1331 11.4656 13.9791C10.9849 13.8251 10.5603 13.6058 10.1916 13.3211C9.82294 13.0318 9.51961 12.6865 9.28161 12.2851C9.04828 11.8791 8.89428 11.4241 8.81961 10.9201L10.8076 10.6261C10.8776 10.9248 10.9803 11.1885 11.1156 11.4171C11.2509 11.6411 11.4166 11.8301 11.6126 11.9841C11.8133 12.1335 12.0419 12.2455 12.2986 12.3201C12.5599 12.3948 12.8516 12.4321 13.1736 12.4321C13.4489 12.4321 13.7033 12.3995 13.9366 12.3341C14.1699 12.2688 14.3729 12.1778 14.5456 12.0611C14.7183 11.9398 14.8513 11.7998 14.9446 11.6411C15.0426 11.4778 15.0916 11.3028 15.0916 11.1161C15.0916 10.8781 15.0123 10.6798 14.8536 10.5211C14.6949 10.3625 14.4476 10.2341 14.1116 10.1361L11.4936 9.36612C10.7329 9.14212 10.1613 8.80845 9.77861 8.36512C9.40061 7.92179 9.21161 7.36879 9.21161 6.70612C9.21161 6.25812 9.30261 5.84979 9.48461 5.48112C9.66661 5.11245 9.92094 4.79979 10.2476 4.54312C10.5789 4.28179 10.9709 4.08112 11.4236 3.94112C11.8809 3.79645 12.3803 3.72412 12.9216 3.72412C13.4536 3.72412 13.9436 3.78945 14.3916 3.92012C14.8396 4.05079 15.2363 4.24212 15.5816 4.49412C15.9269 4.74145 16.2209 5.04945 16.4636 5.41812C16.7063 5.78212 16.8883 6.20212 17.0096 6.67812L14.9516 7.02812C14.8956 6.78079 14.8093 6.56379 14.6926 6.37712C14.5759 6.18579 14.4289 6.02479 14.2516 5.89412C14.0789 5.76345 13.8783 5.66545 13.6496 5.60012C13.4209 5.53479 13.1689 5.50212 12.8936 5.50212C12.6323 5.50212 12.3966 5.53012 12.1866 5.58612C11.9813 5.64212 11.8063 5.72145 11.6616 5.82412C11.5169 5.92212 11.4049 6.04112 11.3256 6.18112C11.2509 6.31645 11.2136 6.46579 11.2136 6.62912C11.2136 6.75512 11.2393 6.87179 11.2906 6.97912C11.3466 7.08179 11.4306 7.17745 11.5426 7.26612C11.6546 7.35479 11.7946 7.43645 11.9626 7.51112C12.1353 7.58579 12.3406 7.65579 12.5786 7.72112L14.3076 8.19012C15.2549 8.44679 15.9549 8.80612 16.4076 9.26812C16.8649 9.72545 17.0936 10.3041 17.0936 11.0041C17.0936 11.4801 16.9956 11.9141 16.7996 12.3061C16.6036 12.6981 16.3259 13.0365 15.9666 13.3211C15.6119 13.6011 15.1873 13.8205 14.6926 13.9791C14.1979 14.1331 13.6496 14.2101 13.0476 14.2101Z" fill="white"/>
</svg>
